# xmcd
#
# Track frame offsets:
# 150
# 14362
# 22964
# 38340
# 51963
# 66670
# 80477
# 92270
# 103665
# 115149
#
# Disc length: 1718 seconds
#
#
# Revision: 0
# Processed by: cddbd v1.5.1PL2 Copyright (c) Steve Scherf et al.
# Submitted via: FreeRIP 2.945 
#
DISCID=7306b40a
DTITLE=Gene Watson - Starting New Memories
DYEAR=1986
DGENRE=Country
TTITLE0=Completely Out Of Love
TTITLE1=Almost Like Having You Here
TTITLE2=Take It From Me
TTITLE3=Sittin' On A Gold Mine
TTITLE4=Bottle Of Tears
TTITLE5=Atlanta Anymore
TTITLE6=Starting New Memories Today
TTITLE7=Everything I Used To Do
TTITLE8=I Saved Your Place
TTITLE9=Rollin' Home
EXTD=
EXTT0=
EXTT1=
EXTT2=
EXTT3=
EXTT4=
EXTT5=
EXTT6=
EXTT7=
EXTT8=
EXTT9=
PLAYORDER=
